<svg width="30" height="30" viewBox="0 0 30 30" fill="none" xmlns="http://www.w3.org/2000/svg">
<path d="M29.8468 7.19028C29.5147 5.41328 28.6874 3.78737 27.4752 2.52916C26.263 1.27096 24.7233 0.440193 23.0613 0.147553C21.8126 -0.0666883 20.5348 0.0327394 19.3277 0.438068C18.1206 0.843396 17.017 1.54365 16.103 2.4841C15.8055 2.7819 15.4142 2.94744 15.008 2.94744C14.6017 2.94744 14.2104 2.7819 13.9129 2.4841C12.3954 0.904295 10.3706 0.0146816 8.25945 0.0001801C6.14827 -0.0143214 4.11311 0.847404 2.57699 2.40624C1.04088 3.96507 0.121976 6.10109 0.0112953 8.3703C-0.0993854 10.6395 0.606669 12.8673 1.9827 14.5907L13.3481 29.1683C13.5515 29.4288 13.8054 29.6382 14.092 29.7819C14.3785 29.9256 14.6909 30 15.007 30C15.3231 30 15.6354 29.9256 15.922 29.7819C16.2086 29.6382 16.4625 29.4288 16.6659 29.1683L28.0313 14.5907C28.835 13.5866 29.416 12.399 29.7306 11.1176C30.0451 9.83629 30.0848 8.49473 29.8468 7.19442V7.19028Z" fill="#FD6363"/>
</svg>
