<svg width="30" height="30" viewBox="0 0 30 30" fill="none" xmlns="http://www.w3.org/2000/svg">
<path d="M16.8104 3.19087L16.8105 3.19094L16.8201 3.18105C17.6265 2.3513 18.5946 1.73911 19.6461 1.38605C20.6964 1.03335 21.806 0.947151 22.8901 1.13278C24.335 1.3877 25.6847 2.112 26.7551 3.22299C27.8078 4.31564 28.5399 5.73068 28.8475 7.28921L28.8631 7.3745C29.0758 8.53629 29.0402 9.73523 28.7594 10.8793C28.4786 12.0232 27.9611 13.0782 27.2506 13.9658L27.2505 13.9658L27.2426 13.9759L15.8777 28.5528C15.7627 28.7001 15.6237 28.8128 15.4738 28.8879C15.3243 28.9629 15.1653 29 15.007 29C14.8487 29 14.6896 28.9629 14.5402 28.8879C14.3904 28.8128 14.2514 28.7003 14.1364 28.5531C14.1364 28.553 14.1363 28.5529 14.1363 28.5528L2.77133 13.9759L2.77139 13.9758L2.76416 13.9668C1.54502 12.4399 0.910897 10.4531 1.01011 8.41902C1.10931 6.38508 1.93279 4.48467 3.28927 3.10813C4.64356 1.73382 6.42244 0.987585 8.25258 1.00016C10.0828 1.01273 11.8532 1.78342 13.1917 3.17685L13.1985 3.18393L13.2055 3.19087C13.683 3.66885 14.3258 3.94744 15.008 3.94744C15.6901 3.94744 16.3329 3.66885 16.8104 3.19087Z" fill="#7C7C7C" fill-opacity="0.38" stroke="#08D67F" stroke-width="2"/>
</svg>
