<svg width="24" height="25" viewBox="0 0 24 25" fill="none" xmlns="http://www.w3.org/2000/svg">
<path d="M13 3.0615L13 3.0615L20.5 7.3915C20.652 7.47926 20.7783 7.6055 20.866 7.75751C20.9538 7.90953 21 8.08196 21 8.25747V21.6805H15V15.6805V14.6805H14H10H9V15.6805V21.6805H3V8.2575C3 8.25749 3 8.25748 3 8.25747C3.00001 8.08195 3.04622 7.90952 3.13398 7.75751C3.22175 7.6055 3.34798 7.47927 3.49999 7.3915C3.49999 7.3915 3.5 7.3915 3.5 7.3915L11 3.0615L11 3.0615C11.304 2.88596 11.6489 2.79355 12 2.79355C12.3511 2.79355 12.696 2.88596 13 3.0615Z" fill="white" stroke="white" stroke-width="2"/>
</svg>
