<svg width="24" height="24" viewBox="0 0 24 24" fill="none" xmlns="http://www.w3.org/2000/svg">
<path d="M13 2.38102L13 2.38102L20.5 6.71102C20.652 6.79878 20.7783 6.92502 20.866 7.07703C20.9538 7.22904 21 7.40148 21 7.57699V21H15V15V14H14H10H9V15V21H3V7.57702C3 7.57701 3 7.577 3 7.57699C3.00001 7.40147 3.04622 7.22904 3.13398 7.07703C3.22175 6.92502 3.34798 6.79879 3.49999 6.71102C3.49999 6.71102 3.5 6.71102 3.5 6.71102L11 2.38102L11 2.38102C11.304 2.20548 11.6489 2.11307 12 2.11307C12.3511 2.11307 12.696 2.20548 13 2.38102Z" stroke="white" stroke-width="2"/>
</svg>
