<svg width="24" height="25" viewBox="0 0 24 25" fill="none" xmlns="http://www.w3.org/2000/svg">
<path d="M13 2.77166L13 2.77166L20.5 7.10166C20.652 7.18942 20.7783 7.31566 20.866 7.46767C20.9538 7.61969 21 7.79212 21 7.96763V21.3906H15V15.3906V14.3906H14H10H9V15.3906V21.3906H3V7.96766C3 7.96765 3 7.96764 3 7.96763C3.00001 7.79211 3.04622 7.61968 3.13398 7.46767C3.22175 7.31566 3.34798 7.18943 3.49999 7.10166C3.49999 7.10166 3.5 7.10166 3.5 7.10166L11 2.77166L11 2.77166C11.304 2.59612 11.6489 2.50371 12 2.50371C12.3511 2.50371 12.696 2.59612 13 2.77166Z" stroke="#B3B3B3" stroke-width="2"/>
</svg>
