<svg width="30" height="23" viewBox="0 0 30 23" fill="none" xmlns="http://www.w3.org/2000/svg">
<path d="M25.8876 5.84398C25.6441 4.54084 25.0375 3.34851 24.1485 2.42583C23.2595 1.50314 22.1304 0.893914 20.9116 0.679312C19.9959 0.522201 19.0589 0.595115 18.1737 0.892356C17.2885 1.1896 16.4791 1.70311 15.8089 2.39278C15.5907 2.61117 15.3038 2.73256 15.0058 2.73256C14.7079 2.73256 14.421 2.61117 14.2028 2.39278C13.09 1.23426 11.6051 0.581872 10.0569 0.571238C8.50873 0.560604 7.01628 1.19254 5.8898 2.33568C4.76331 3.47882 4.08945 5.04524 4.00828 6.70933C3.92712 8.37341 4.44489 10.0072 5.45398 11.271L13.7886 21.9612C13.9378 22.1522 14.124 22.3058 14.3341 22.4111C14.5443 22.5165 14.7733 22.5711 15.0051 22.5711C15.237 22.5711 15.466 22.5165 15.6761 22.4111C15.8863 22.3058 16.0725 22.1522 16.2216 21.9612L24.5563 11.271C25.1457 10.5346 25.5718 9.66371 25.8024 8.72405C26.0331 7.78438 26.0622 6.80058 25.8876 5.84701V5.84398Z" fill="#FD6363"/>
</svg>
