<svg width="30" height="23" viewBox="0 0 30 23" fill="none" xmlns="http://www.w3.org/2000/svg">
<path d="M16.5164 3.09962L16.5163 3.09955C16.1181 3.49811 15.5797 3.73256 15.0058 3.73256C14.432 3.73256 13.8935 3.49811 13.4954 3.09955L13.4884 3.09261L13.4816 3.08552C12.5478 2.11338 11.3173 1.57992 10.0501 1.57121C8.7829 1.56251 7.54673 2.07895 6.60207 3.03758C5.65522 3.99843 5.07679 5.32923 5.0071 6.75804C4.9374 8.18698 5.38324 9.5797 6.23544 10.647L6.24267 10.6561L6.24261 10.6561L14.5768 21.3457L16.5164 3.09962ZM16.5164 3.09962L16.526 3.08973M16.5164 3.09962L16.526 3.08973M16.526 3.08973C17.0887 2.51077 17.7624 2.08531 18.492 1.84034C19.2205 1.59572 19.9893 1.53604 20.7404 1.66454C21.7422 1.84142 22.6812 2.34419 23.4283 3.11965C24.1632 3.88235 24.6767 4.87261 24.8929 5.96646L24.904 6.0271C25.0532 6.84213 25.0282 7.68332 24.8312 8.48567C24.6343 9.28794 24.2717 10.0262 23.7756 10.6461L23.7755 10.646M16.526 3.08973L23.7755 10.646M23.7755 10.646L23.7676 10.6561M23.7755 10.646L23.7676 10.6561M23.7676 10.6561L15.4335 21.3457C15.4333 21.3459 15.4332 21.3461 15.433 21.3463C15.3723 21.4239 15.3012 21.4805 15.228 21.5172C15.1549 21.5538 15.0791 21.5711 15.0051 21.5711C14.9312 21.5711 14.8554 21.5538 14.7823 21.5172C14.7091 21.4805 14.6379 21.4239 14.5772 21.3463L23.7676 10.6561Z" stroke="#FD6363" stroke-width="2"/>
</svg>
