<svg width="153" height="66" viewBox="0 0 153 66" fill="none" xmlns="http://www.w3.org/2000/svg">
<rect x="1" y="1" width="63.6805" height="63.6805" stroke="white" stroke-width="2"/>
<rect width="120" height="35" transform="translate(32.1835 22.3314)" fill="#1D1D1D"/>
<path d="M37.7301 47.6114C37.0457 47.6114 36.4057 47.5491 35.8101 47.4247C35.2235 47.3091 34.7301 47.1536 34.3301 46.958C33.9301 46.7625 33.6012 46.5758 33.3435 46.398C33.0946 46.2202 32.8857 46.0425 32.7168 45.8647L33.0501 42.6247C33.4146 43.1136 33.9035 43.5402 34.5168 43.9047C35.1301 44.2602 35.7924 44.438 36.5035 44.438C37.2146 44.438 37.7257 44.3625 38.0368 44.2114C38.3568 44.0602 38.5168 43.7847 38.5168 43.3847C38.5168 42.958 38.3346 42.5936 37.9701 42.2914C37.6146 41.9891 36.9968 41.6247 36.1168 41.198C35.7968 41.038 35.5257 40.8958 35.3035 40.7714C35.0812 40.638 34.7835 40.4247 34.4101 40.1314C34.0457 39.8291 33.7479 39.518 33.5168 39.198C33.2857 38.8691 33.0812 38.4514 32.9035 37.9447C32.7257 37.4291 32.6368 36.878 32.6368 36.2914C32.6368 33.118 34.4279 31.5314 38.0101 31.5314C38.579 31.5314 39.1124 31.5936 39.6101 31.718C40.1168 31.8336 40.5124 31.9625 40.7968 32.1047C41.0812 32.2469 41.339 32.4158 41.5701 32.6114C41.8101 32.798 41.9612 32.9314 42.0235 33.0114C42.0857 33.0825 42.1301 33.1402 42.1568 33.1847L41.4901 35.758C41.1435 35.3491 40.7079 35.0469 40.1835 34.8514C39.6679 34.6469 39.1746 34.5447 38.7035 34.5447C37.5657 34.5447 36.9968 34.9002 36.9968 35.6114C36.9968 35.798 37.0324 35.9669 37.1035 36.118C37.1746 36.2691 37.2901 36.4069 37.4501 36.5314C37.6101 36.6558 37.7568 36.7625 37.8901 36.8514C38.0324 36.9402 38.2235 37.0514 38.4635 37.1847C38.7124 37.3091 38.899 37.4114 39.0235 37.4914C40.3212 38.0425 41.2724 38.6958 41.8768 39.4514C42.4901 40.2069 42.7968 41.1269 42.7968 42.2114C42.7968 43.9714 42.3612 45.3136 41.4901 46.238C40.6279 47.1536 39.3746 47.6114 37.7301 47.6114ZM48.7296 41.2914C48.7296 42.7669 48.8407 43.7936 49.063 44.3714C49.2941 44.9491 49.6941 45.238 50.263 45.238C50.6807 45.238 50.9963 45.1358 51.2096 44.9314C51.423 44.718 51.583 44.2869 51.6896 43.638C51.8052 42.9802 51.863 41.998 51.863 40.6914V37.478C51.863 36.2069 51.7385 35.2602 51.4896 34.638C51.2407 34.0158 50.8318 33.7047 50.263 33.7047C49.6941 33.7047 49.2941 34.0114 49.063 34.6247C48.8407 35.2291 48.7296 36.3358 48.7296 37.9447V41.2914ZM49.983 47.6114C49.2452 47.6114 48.5785 47.5447 47.983 47.4114C47.3963 47.278 46.8896 47.0914 46.463 46.8514C46.0363 46.6114 45.663 46.3047 45.343 45.9314C45.0318 45.558 44.7785 45.158 44.583 44.7314C44.3963 44.3047 44.2452 43.8069 44.1296 43.238C44.0141 42.6602 43.9341 42.0869 43.8896 41.518C43.8452 40.9402 43.823 40.2914 43.823 39.5714C43.823 38.5047 43.8763 37.5758 43.983 36.7847C44.0985 35.9936 44.3074 35.2514 44.6096 34.558C44.9118 33.8558 45.3118 33.2869 45.8096 32.8514C46.3163 32.4158 46.9652 32.0736 47.7563 31.8247C48.5563 31.5758 49.4985 31.4514 50.583 31.4514C51.3296 31.4514 52.0007 31.5225 52.5963 31.6647C53.1918 31.798 53.703 31.9847 54.1296 32.2247C54.5563 32.4647 54.9252 32.7758 55.2363 33.158C55.5563 33.5402 55.8096 33.9491 55.9963 34.3847C56.1918 34.8114 56.3474 35.3136 56.463 35.8914C56.5785 36.4691 56.6585 37.0425 56.703 37.6114C56.7474 38.1802 56.7696 38.8247 56.7696 39.5447C56.7696 40.6114 56.7118 41.5402 56.5963 42.3314C56.4807 43.1225 56.2718 43.8647 55.9696 44.558C55.6674 45.2425 55.263 45.8025 54.7563 46.238C54.2496 46.6647 53.5963 47.0025 52.7963 47.2514C52.0052 47.4914 51.0674 47.6114 49.983 47.6114ZM64.1949 47.6114C63.2794 47.6114 62.466 47.5225 61.7549 47.3447C61.0527 47.1669 60.4749 46.9269 60.0216 46.6247C59.5772 46.3225 59.2083 45.9491 58.9149 45.5047C58.6305 45.0514 58.4305 44.5758 58.3149 44.078C58.1994 43.5802 58.1416 43.0291 58.1416 42.4247V31.7047H62.8883V41.8247C62.8883 42.9536 63.0038 43.7314 63.2349 44.158C63.4749 44.5758 63.8216 44.7847 64.2749 44.7847C64.5238 44.7847 64.7416 44.7447 64.9283 44.6647C65.1149 44.5758 65.2883 44.4291 65.4483 44.2247C65.6083 44.0114 65.7283 43.7091 65.8083 43.318C65.8972 42.918 65.9416 42.4336 65.9416 41.8647V31.7047H70.1549V42.5047C70.1549 43.1002 70.1016 43.638 69.9949 44.118C69.8972 44.598 69.7105 45.0647 69.4349 45.518C69.1683 45.9625 68.8127 46.3358 68.3683 46.638C67.9327 46.9314 67.3594 47.1669 66.6483 47.3447C65.946 47.5225 65.1283 47.6114 64.1949 47.6114ZM76.184 47.3314H71.944V32.958L71.2907 31.7047H76.1973L78.6507 36.7714L80.9973 41.8247L80.344 35.8914V31.7047H84.5973V47.3314H80.5307L77.3573 41.158L75.3973 37.2914L76.184 42.4114V47.3314ZM91.6638 45.1447C92.3393 45.1447 92.8549 44.7269 93.2105 43.8914C93.5749 43.0558 93.7571 41.678 93.7571 39.758V38.4114C93.7571 37.0069 93.5882 35.9225 93.2505 35.158C92.9127 34.3936 92.4327 34.0114 91.8105 34.0114H90.8105V45.1447H91.6638ZM92.0771 47.4247C91.7571 47.4247 91.2593 47.4069 90.5838 47.3714C89.9171 47.3447 89.2282 47.3314 88.5171 47.3314H86.3971V31.7047H88.5171C89.1127 31.6958 89.7616 31.6736 90.4638 31.638C91.166 31.6025 91.7171 31.5847 92.1171 31.5847C94.3838 31.5847 96.006 32.2202 96.9838 33.4914C97.9705 34.7625 98.4638 36.6158 98.4638 39.0514C98.4638 39.878 98.406 40.6647 98.2905 41.4114C98.1838 42.158 97.9793 42.9091 97.6771 43.6647C97.3749 44.4114 96.9927 45.0558 96.5305 45.598C96.0682 46.1402 95.4549 46.5802 94.6905 46.918C93.926 47.2558 93.0549 47.4247 92.0771 47.4247ZM106.171 47.3314H101.957L98.2374 31.7047H102.677L103.384 37.0914L104.437 42.318L105.784 37.0914L106.131 35.6647L105.104 31.7047H109.464L110.424 37.0914L111.597 42.318L112.331 37.0914L113.117 31.7047H117.171L113.731 47.3314H109.184L107.544 41.0514L106.171 47.3314ZM125.118 47.3314L124.518 44.838H120.732L120.225 47.3314H116.305L120.372 32.7847L120.052 31.7047H125.558L130.012 47.3314H125.118ZM122.452 36.2914L121.278 42.118H123.865L122.452 36.2914ZM133.178 47.3314L128.764 31.7047H133.684L134.844 37.0914L136.044 42.7447L137.178 37.0914L138.378 31.7047H141.884L138.018 47.3314H133.178ZM151.358 47.3314H141.905V31.7047H151.158L150.892 34.8514L146.318 34.718V37.7314H149.918V40.8514L146.318 40.5847V44.1314L151.358 43.998V47.3314Z" fill="white"/>
</svg>
