<svg width="153" height="66" viewBox="0 0 153 66" fill="none" xmlns="http://www.w3.org/2000/svg">
<rect x="1" y="1" width="63.6805" height="63.6805" stroke="white" stroke-width="2"/>
<rect width="120" height="35" transform="translate(32.1836 22.3314)" fill="black"/>
<path d="M37.7303 47.6114C37.0458 47.6114 36.4058 47.5491 35.8103 47.4247C35.2236 47.3091 34.7303 47.1536 34.3303 46.958C33.9303 46.7625 33.6014 46.5758 33.3436 46.398C33.0947 46.2202 32.8858 46.0425 32.7169 45.8647L33.0503 42.6247C33.4147 43.1136 33.9036 43.5402 34.5169 43.9047C35.1303 44.2602 35.7925 44.438 36.5036 44.438C37.2147 44.438 37.7258 44.3625 38.0369 44.2114C38.3569 44.0602 38.5169 43.7847 38.5169 43.3847C38.5169 42.958 38.3347 42.5936 37.9703 42.2914C37.6147 41.9891 36.9969 41.6247 36.1169 41.198C35.7969 41.038 35.5258 40.8958 35.3036 40.7714C35.0814 40.638 34.7836 40.4247 34.4103 40.1314C34.0458 39.8291 33.748 39.518 33.5169 39.198C33.2858 38.8691 33.0814 38.4514 32.9036 37.9447C32.7258 37.4291 32.6369 36.878 32.6369 36.2914C32.6369 33.118 34.428 31.5314 38.0103 31.5314C38.5791 31.5314 39.1125 31.5936 39.6103 31.718C40.1169 31.8336 40.5125 31.9625 40.7969 32.1047C41.0814 32.2469 41.3391 32.4158 41.5703 32.6114C41.8103 32.798 41.9614 32.9314 42.0236 33.0114C42.0858 33.0825 42.1303 33.1402 42.1569 33.1847L41.4903 35.758C41.1436 35.3491 40.708 35.0469 40.1836 34.8514C39.668 34.6469 39.1747 34.5447 38.7036 34.5447C37.5658 34.5447 36.9969 34.9002 36.9969 35.6114C36.9969 35.798 37.0325 35.9669 37.1036 36.118C37.1747 36.2691 37.2903 36.4069 37.4503 36.5314C37.6103 36.6558 37.7569 36.7625 37.8903 36.8514C38.0325 36.9402 38.2236 37.0514 38.4636 37.1847C38.7125 37.3091 38.8991 37.4114 39.0236 37.4914C40.3214 38.0425 41.2725 38.6958 41.8769 39.4514C42.4903 40.2069 42.7969 41.1269 42.7969 42.2114C42.7969 43.9714 42.3614 45.3136 41.4903 46.238C40.628 47.1536 39.3747 47.6114 37.7303 47.6114ZM48.7297 41.2914C48.7297 42.7669 48.8409 43.7936 49.0631 44.3714C49.2942 44.9491 49.6942 45.238 50.2631 45.238C50.6809 45.238 50.9964 45.1358 51.2097 44.9314C51.4231 44.718 51.5831 44.2869 51.6897 43.638C51.8053 42.9802 51.8631 41.998 51.8631 40.6914V37.478C51.8631 36.2069 51.7386 35.2602 51.4897 34.638C51.2409 34.0158 50.832 33.7047 50.2631 33.7047C49.6942 33.7047 49.2942 34.0114 49.0631 34.6247C48.8409 35.2291 48.7297 36.3358 48.7297 37.9447V41.2914ZM49.9831 47.6114C49.2453 47.6114 48.5786 47.5447 47.9831 47.4114C47.3964 47.278 46.8897 47.0914 46.4631 46.8514C46.0364 46.6114 45.6631 46.3047 45.3431 45.9314C45.032 45.558 44.7786 45.158 44.5831 44.7314C44.3964 44.3047 44.2453 43.8069 44.1297 43.238C44.0142 42.6602 43.9342 42.0869 43.8897 41.518C43.8453 40.9402 43.8231 40.2914 43.8231 39.5714C43.8231 38.5047 43.8764 37.5758 43.9831 36.7847C44.0986 35.9936 44.3075 35.2514 44.6097 34.558C44.912 33.8558 45.312 33.2869 45.8097 32.8514C46.3164 32.4158 46.9653 32.0736 47.7564 31.8247C48.5564 31.5758 49.4986 31.4514 50.5831 31.4514C51.3297 31.4514 52.0009 31.5225 52.5964 31.6647C53.192 31.798 53.7031 31.9847 54.1297 32.2247C54.5564 32.4647 54.9253 32.7758 55.2364 33.158C55.5564 33.5402 55.8097 33.9491 55.9964 34.3847C56.192 34.8114 56.3475 35.3136 56.4631 35.8914C56.5786 36.4691 56.6586 37.0425 56.7031 37.6114C56.7475 38.1802 56.7697 38.8247 56.7697 39.5447C56.7697 40.6114 56.712 41.5402 56.5964 42.3314C56.4809 43.1225 56.272 43.8647 55.9697 44.558C55.6675 45.2425 55.2631 45.8025 54.7564 46.238C54.2497 46.6647 53.5964 47.0025 52.7964 47.2514C52.0053 47.4914 51.0675 47.6114 49.9831 47.6114ZM64.1951 47.6114C63.2795 47.6114 62.4662 47.5225 61.7551 47.3447C61.0528 47.1669 60.4751 46.9269 60.0217 46.6247C59.5773 46.3225 59.2084 45.9491 58.9151 45.5047C58.6306 45.0514 58.4306 44.5758 58.3151 44.078C58.1995 43.5802 58.1417 43.0291 58.1417 42.4247V31.7047H62.8884V41.8247C62.8884 42.9536 63.0039 43.7314 63.2351 44.158C63.4751 44.5758 63.8217 44.7847 64.2751 44.7847C64.5239 44.7847 64.7417 44.7447 64.9284 44.6647C65.1151 44.5758 65.2884 44.4291 65.4484 44.2247C65.6084 44.0114 65.7284 43.7091 65.8084 43.318C65.8973 42.918 65.9417 42.4336 65.9417 41.8647V31.7047H70.1551V42.5047C70.1551 43.1002 70.1017 43.638 69.9951 44.118C69.8973 44.598 69.7106 45.0647 69.4351 45.518C69.1684 45.9625 68.8128 46.3358 68.3684 46.638C67.9328 46.9314 67.3595 47.1669 66.6484 47.3447C65.9462 47.5225 65.1284 47.6114 64.1951 47.6114ZM76.1841 47.3314H71.9441V32.958L71.2908 31.7047H76.1974L78.6508 36.7714L80.9974 41.8247L80.3441 35.8914V31.7047H84.5974V47.3314H80.5308L77.3574 41.158L75.3974 37.2914L76.1841 42.4114V47.3314ZM91.6639 45.1447C92.3395 45.1447 92.855 44.7269 93.2106 43.8914C93.575 43.0558 93.7572 41.678 93.7572 39.758V38.4114C93.7572 37.0069 93.5884 35.9225 93.2506 35.158C92.9128 34.3936 92.4328 34.0114 91.8106 34.0114H90.8106V45.1447H91.6639ZM92.0772 47.4247C91.7572 47.4247 91.2595 47.4069 90.5839 47.3714C89.9172 47.3447 89.2284 47.3314 88.5172 47.3314H86.3972V31.7047H88.5172C89.1128 31.6958 89.7617 31.6736 90.4639 31.638C91.1661 31.6025 91.7172 31.5847 92.1172 31.5847C94.3839 31.5847 96.0061 32.2202 96.9839 33.4914C97.9706 34.7625 98.4639 36.6158 98.4639 39.0514C98.4639 39.878 98.4061 40.6647 98.2906 41.4114C98.1839 42.158 97.9795 42.9091 97.6772 43.6647C97.375 44.4114 96.9928 45.0558 96.5306 45.598C96.0684 46.1402 95.455 46.5802 94.6906 46.918C93.9261 47.2558 93.055 47.4247 92.0772 47.4247ZM106.171 47.3314H101.958L98.2376 31.7047H102.678L103.384 37.0914L104.438 42.318L105.784 37.0914L106.131 35.6647L105.104 31.7047H109.464L110.424 37.0914L111.598 42.318L112.331 37.0914L113.118 31.7047H117.171L113.731 47.3314H109.184L107.544 41.0514L106.171 47.3314ZM125.119 47.3314L124.519 44.838H120.732L120.225 47.3314H116.305L120.372 32.7847L120.052 31.7047H125.559L130.012 47.3314H125.119ZM122.452 36.2914L121.279 42.118H123.865L122.452 36.2914ZM133.178 47.3314L128.765 31.7047H133.685L134.845 37.0914L136.045 42.7447L137.178 37.0914L138.378 31.7047H141.885L138.018 47.3314H133.178ZM151.358 47.3314H141.905V31.7047H151.158L150.892 34.8514L146.318 34.718V37.7314H149.918V40.8514L146.318 40.5847V44.1314L151.358 43.998V47.3314Z" fill="white"/>
</svg>
