<svg width="15" height="14" viewBox="0 0 15 14" fill="none" xmlns="http://www.w3.org/2000/svg">
<path d="M12.4969 0C12.3112 0 12.1332 0.0737497 12.0019 0.205025C11.8706 0.336301 11.7969 0.514349 11.7969 0.7V5.85L1.84688 0.107C1.74055 0.0456135 1.61995 0.0132707 1.49718 0.0132172C1.37441 0.0131637 1.25378 0.0454013 1.1474 0.106695C1.04102 0.167989 0.952639 0.256183 0.891114 0.362427C0.829589 0.468671 0.797089 0.589228 0.796875 0.712V13.287C0.796738 13.4099 0.828982 13.5308 0.890364 13.6373C0.951746 13.7438 1.0401 13.8323 1.14654 13.8938C1.25297 13.9553 1.37374 13.9877 1.49668 13.9878C1.61962 13.9878 1.7404 13.9555 1.84688 13.894L11.7969 8.149V13.3C11.7969 13.4857 11.8706 13.6637 12.0019 13.795C12.1332 13.9262 12.3112 14 12.4969 14H14.0969C14.2825 14 14.4606 13.9262 14.5918 13.795C14.7231 13.6637 14.7969 13.4857 14.7969 13.3V0.7C14.7969 0.514349 14.7231 0.336301 14.5918 0.205025C14.4606 0.0737497 14.2825 0 14.0969 0H12.4969Z" fill="white" fill-opacity="0.698"/>
</svg>
