<svg width="33" height="32" viewBox="0 0 33 32" fill="none" xmlns="http://www.w3.org/2000/svg">
<rect x="0.796875" width="32" height="32" rx="16" fill="white"/>
<g clip-path="url(#clip0_1_946)">
<path d="M11.4969 9C11.3112 9 11.1332 9.07375 11.0019 9.20503C10.8706 9.3363 10.7969 9.51435 10.7969 9.7V22.3C10.7969 22.4857 10.8706 22.6637 11.0019 22.795C11.1332 22.9262 11.3112 23 11.4969 23H14.0969C14.2825 23 14.4606 22.9262 14.5918 22.795C14.7231 22.6637 14.7969 22.4857 14.7969 22.3V9.7C14.7969 9.51435 14.7231 9.3363 14.5918 9.20503C14.4606 9.07375 14.2825 9 14.0969 9H11.4969ZM19.4969 9C19.3112 9 19.1332 9.07375 19.0019 9.20503C18.8706 9.3363 18.7969 9.51435 18.7969 9.7V22.3C18.7969 22.4857 18.8706 22.6637 19.0019 22.795C19.1332 22.9262 19.3112 23 19.4969 23H22.0969C22.2825 23 22.4606 22.9262 22.5918 22.795C22.7231 22.6637 22.7969 22.4857 22.7969 22.3V9.7C22.7969 9.51435 22.7231 9.3363 22.5918 9.20503C22.4606 9.07375 22.2825 9 22.0969 9H19.4969Z" fill="black"/>
</g>
<defs>
<clipPath id="clip0_1_946">
<rect width="16" height="16" fill="white" transform="translate(8.79688 8)"/>
</clipPath>
</defs>
</svg>
