<svg width="24" height="25" viewBox="0 0 24 25" fill="none" xmlns="http://www.w3.org/2000/svg">
<path d="M10.533 1.66962C5.35298 1.66962 1.12598 5.80962 1.12598 10.9486C1.12598 16.0876 5.35198 20.2276 10.533 20.2276C12.767 20.2276 14.823 19.4576 16.44 18.1696L20.793 22.5226C20.8852 22.6181 20.9956 22.6943 21.1176 22.7467C21.2396 22.7991 21.3708 22.8267 21.5036 22.8279C21.6364 22.829 21.768 22.8037 21.8909 22.7534C22.0138 22.7032 22.1255 22.6289 22.2194 22.535C22.3133 22.4411 22.3875 22.3295 22.4378 22.2066C22.4881 22.0837 22.5134 21.952 22.5122 21.8192C22.5111 21.6864 22.4835 21.5552 22.4311 21.4332C22.3787 21.3112 22.3025 21.2009 22.207 21.1086L17.863 16.7646C19.2079 15.125 19.942 13.0693 19.94 10.9486C19.94 5.80862 15.714 1.66862 10.533 1.66862V1.66962ZM3.12598 10.9486C3.12598 6.94262 6.42798 3.66862 10.533 3.66862C14.638 3.66862 17.94 6.94262 17.94 10.9486C17.94 14.9546 14.638 18.2276 10.533 18.2276C6.42798 18.2276 3.12598 14.9556 3.12598 10.9486Z" fill="white"/>
</svg>
