<svg width="24" height="25" viewBox="0 0 24 25" fill="none" xmlns="http://www.w3.org/2000/svg">
<path d="M10.533 1.9595C5.35298 1.9595 1.12598 6.0995 1.12598 11.2385C1.12598 16.3775 5.35198 20.5175 10.533 20.5175C12.767 20.5175 14.823 19.7475 16.44 18.4595L20.793 22.8125C20.8852 22.908 20.9956 22.9842 21.1176 23.0366C21.2396 23.089 21.3708 23.1166 21.5036 23.1177C21.6364 23.1189 21.768 23.0936 21.8909 23.0433C22.0138 22.993 22.1255 22.9188 22.2194 22.8249C22.3133 22.731 22.3875 22.6193 22.4378 22.4965C22.4881 22.3736 22.5134 22.2419 22.5122 22.1091C22.5111 21.9763 22.4835 21.8451 22.4311 21.7231C22.3787 21.6011 22.3025 21.4907 22.207 21.3985L17.863 17.0545C19.2079 15.4148 19.942 13.3592 19.94 11.2385C19.94 6.0985 15.714 1.9585 10.533 1.9585V1.9595ZM3.12598 11.2385C3.12598 7.2325 6.42798 3.9585 10.533 3.9585C14.638 3.9585 17.94 7.2325 17.94 11.2385C17.94 15.2445 14.638 18.5175 10.533 18.5175C6.42798 18.5175 3.12598 15.2455 3.12598 11.2385Z" fill="white"/>
<circle cx="10.5" cy="11.5" r="8.5" fill="white"/>
</svg>
