<svg width="17" height="16" viewBox="0 0 17 16" fill="none" xmlns="http://www.w3.org/2000/svg">
<path d="M13.4969 1C13.3112 1 13.1332 1.07375 13.0019 1.20503C12.8706 1.3363 12.7969 1.51435 12.7969 1.7V6.85L2.84688 1.107C2.74055 1.04561 2.61995 1.01327 2.49718 1.01322C2.37441 1.01316 2.25378 1.0454 2.1474 1.1067C2.04102 1.16799 1.95264 1.25618 1.89111 1.36243C1.82959 1.46867 1.79709 1.58923 1.79688 1.712V14.287C1.79674 14.4099 1.82898 14.5308 1.89036 14.6373C1.95175 14.7438 2.0401 14.8323 2.14654 14.8938C2.25297 14.9553 2.37374 14.9877 2.49668 14.9878C2.61962 14.9878 2.7404 14.9555 2.84688 14.894L12.7969 9.149V14.3C12.7969 14.4857 12.8706 14.6637 13.0019 14.795C13.1332 14.9262 13.3112 15 13.4969 15H15.0969C15.2825 15 15.4606 14.9262 15.5918 14.795C15.7231 14.6637 15.7969 14.4857 15.7969 14.3V1.7C15.7969 1.51435 15.7231 1.3363 15.5918 1.20503C15.4606 1.07375 15.2825 1 15.0969 1H13.4969Z" fill="white" fill-opacity="0.698"/>
</svg>
