<svg width="15" height="14" viewBox="0 0 15 14" fill="none" xmlns="http://www.w3.org/2000/svg">
<path d="M3.09687 0C3.28253 0 3.46057 0.0737497 3.59185 0.205025C3.72313 0.336301 3.79688 0.514349 3.79688 0.7V5.85L13.7469 0.106C13.8533 0.0445713 13.974 0.0122273 14.0968 0.0122178C14.2197 0.0122082 14.3404 0.0445335 14.4468 0.105946C14.5532 0.167358 14.6416 0.255693 14.703 0.362076C14.7645 0.468459 14.7968 0.589143 14.7969 0.712V13.287C14.797 13.4099 14.7648 13.5308 14.7034 13.6373C14.642 13.7438 14.5537 13.8323 14.4472 13.8938C14.3408 13.9553 14.22 13.9877 14.0971 13.9878C13.9741 13.9878 13.8533 13.9555 13.7469 13.894L3.79688 8.149V13.3C3.79688 13.4857 3.72313 13.6637 3.59185 13.795C3.46057 13.9262 3.28253 14 3.09687 14H1.49688C1.31122 14 1.13318 13.9262 1.0019 13.795C0.870625 13.6637 0.796875 13.4857 0.796875 13.3V0.7C0.796875 0.514349 0.870625 0.336301 1.0019 0.205025C1.13318 0.0737497 1.31122 0 1.49688 0H3.09687Z" fill="white" fill-opacity="0.698"/>
</svg>
