<svg width="17" height="16" viewBox="0 0 17 16" fill="none" xmlns="http://www.w3.org/2000/svg">
<g clip-path="url(#clip0_1_961)">
<path d="M10.335 0.85003C10.449 0.915897 10.5438 1.01065 10.6096 1.12476C10.6754 1.23886 10.71 1.3683 10.71 1.50003V14.5C10.71 14.6317 10.6754 14.7611 10.6097 14.8752C10.5439 14.9893 10.4492 15.084 10.3352 15.1499C10.2211 15.2158 10.0918 15.2505 9.96007 15.2505C9.82838 15.2505 9.699 15.2159 9.58495 15.15L2.65995 11.15C1.82615 10.6666 1.21797 9.87235 0.968674 8.94133C0.719378 8.01032 0.849292 7.01844 1.32995 6.18303C1.64879 5.63007 2.10747 5.1707 2.65995 4.85103L9.58495 0.85103C9.69897 0.785204 9.8283 0.750549 9.95995 0.750549C10.0916 0.750549 10.2209 0.784204 10.335 0.85003ZM3.41095 6.15003C3.08692 6.33809 2.81797 6.60796 2.63101 6.93263C2.44405 7.2573 2.34565 7.62538 2.34565 8.00003C2.34565 8.37468 2.44405 8.74276 2.63101 9.06743C2.81797 9.3921 3.08692 9.66197 3.41095 9.85003L9.21095 13.2V2.80003L3.41095 6.15003ZM12.094 10.44V5.56003C12.5406 5.7922 12.9149 6.14249 13.1761 6.57274C13.4374 7.00298 13.5755 7.49668 13.5755 8.00003C13.5755 8.50338 13.4374 8.99708 13.1761 9.42732C12.9149 9.85757 12.5406 10.2079 12.094 10.44Z" fill="white" fill-opacity="0.698"/>
<path d="M12.0938 13.614C13.3703 13.3292 14.5117 12.6179 15.3296 11.5973C16.1476 10.5768 16.5933 9.3079 16.5933 7.99999C16.5933 6.69207 16.1476 5.42321 15.3296 4.40265C14.5117 3.38208 13.3703 2.67076 12.0938 2.38599V3.93599C12.9625 4.20365 13.7226 4.74269 14.2625 5.47401C14.8024 6.20533 15.0938 7.09045 15.0938 7.99949C15.0938 8.90853 14.8024 9.79364 14.2625 10.525C13.7226 11.2563 12.9625 11.7953 12.0938 12.063V13.613V13.614Z" fill="white" fill-opacity="0.698"/>
</g>
<defs>
<clipPath id="clip0_1_961">
<rect width="16" height="16" fill="white" transform="translate(0.59375)"/>
</clipPath>
</defs>
</svg>
